<svg data-v-423bf9ae="" xmlns="http://www.w3.org/2000/svg" viewBox="0 0 177.62649849478257 163" class="iconAbove"><!----><!----><!----><g data-v-423bf9ae="" id="7e23d7b6-2736-4658-b6d6-780976d1b3d9" fill="white" transform="matrix(5.519779205322266,0,0,5.519779205322266,-9.107634544372559,87.3238296508789)"><path d="M5.43 13.44L3.08 13.44L3.08 13.44Q1.65 13.44 1.65 12.41L1.65 12.41L1.65 12.41Q1.65 12.22 1.70 11.98L1.70 11.98L3.67 3.46L5.11 2.84L5.18 2.84L3.07 11.98L3.07 11.98Q3.00 12.28 3.34 12.28L3.34 12.28L5.70 12.28L5.70 12.28Q6.51 12.28 6.90 11.48L6.90 11.48L6.97 11.48L7.88 11.96L7.88 11.96Q7.13 13.44 5.43 13.44L5.43 13.44ZM8.16 11.47L8.16 11.47L8.16 11.47Q8.16 11.47 9.39 10.94L9.39 10.94L9.46 10.94L9.46 10.94Q9.86 12.41 11.14 12.41L11.14 12.41L11.14 12.41Q12.02 12.41 12.88 11.63L12.88 11.63L12.88 11.63Q13.49 11.07 13.71 10.17L13.71 10.17L13.71 10.17Q13.77 9.95 13.77 9.75L13.77 9.75L13.77 9.75Q13.77 9.33 13.54 9.02L13.54 9.02L13.54 9.02Q13.14 8.48 12.22 8.27L12.22 8.27L12.22 8.27Q11.20 8.05 10.58 7.51L10.58 7.51L10.58 7.51Q9.99 7 9.99 6.23L9.99 6.23L9.99 6.23Q9.99 5.99 10.05 5.70L10.05 5.70L10.05 5.70Q10.34 4.46 11.40 3.68L11.40 3.68L11.40 3.68Q12.34 2.98 13.51 2.98L13.51 2.98L13.51 2.98Q15.05 2.98 15.54 4.54L15.54 4.54L14.33 5.05L14.27 5.05L14.27 5.05Q14.02 4.14 13.25 4.14L13.25 4.14L13.25 4.14Q12.60 4.14 12.09 4.56L12.09 4.56L12.09 4.56Q11.59 4.97 11.44 5.60L11.44 5.60L11.44 5.60Q11.40 5.77 11.40 5.91L11.40 5.91L11.40 5.91Q11.40 6.25 11.61 6.46L11.61 6.46L11.61 6.46Q11.98 6.86 12.89 7.05L12.89 7.05L12.89 7.05Q14.12 7.31 14.75 8.11L14.75 8.11L14.75 8.11Q15.18 8.67 15.18 9.45L15.18 9.45L15.18 9.45Q15.18 9.82 15.09 10.21L15.09 10.21L15.09 10.21Q14.80 11.49 13.56 12.54L13.56 12.54L13.56 12.54Q12.33 13.58 10.86 13.58L10.86 13.58L10.86 13.58Q8.82 13.58 8.16 11.47ZM22.93 8.90L17.23 8.90L17.25 8.83L18.07 7.66L23.77 7.66L23.75 7.72L22.93 8.90ZM25.34 13.71L25.27 13.71L24.21 13.15L28.08 8.45L28.08 8.45Q27.06 7.70 26.65 6.63L26.65 6.63L26.65 6.63Q26.30 5.69 26.30 4.72L26.30 4.72L26.30 4.72Q26.30 4.08 26.45 3.46L26.45 3.46L27.89 2.84L27.96 2.84L27.96 2.84Q27.75 3.76 27.75 4.52L27.75 4.52L27.75 4.52Q27.75 5.41 28.03 6.08L28.03 6.08L28.03 6.08Q28.36 6.86 28.96 7.38L28.96 7.38L32.70 2.84L32.76 2.84L33.83 3.41L29.93 8.15L29.93 8.15Q30.96 8.96 31.37 9.95L31.37 9.95L31.37 9.95Q31.75 10.86 31.75 11.83L31.75 11.83L31.75 11.83Q31.75 12.45 31.60 13.10L31.60 13.10L30.15 13.71L30.08 13.71L30.08 13.71Q30.30 12.78 30.30 12.00L30.30 12.00L30.30 12.00Q30.30 11.15 30.04 10.49L30.04 10.49L30.04 10.49Q29.77 9.80 29.05 9.21L29.05 9.21L25.34 13.71Z"></path></g><!----><g data-v-423bf9ae="" id="62b2bdfb-a849-42f1-8165-ef6c4fe70d34" transform="matrix(1.5060744285583496,0,0,1.5060744285583496,13.696088790893555,-2.868673618650064e-7)" stroke="none" fill="white"><path d="M50.542 20.224c-25.119 0-33.411 17.421-33.752 18.163l-.411.895.451.874c.413.801 10.375 19.602 33.712 19.602 23.387 0 32.536-18.864 32.914-19.667l.378-.805-.337-.822c-.306-.746-7.778-18.24-32.955-18.24zm0 35.493c-18.322 0-27.439-12.938-29.614-16.524 1.624-2.821 7.58-11.415 21.025-14.11-4.612 2.642-7.712 7.43-7.712 12.906 0 8.314 7.126 15.079 15.886 15.079 8.759 0 15.886-6.765 15.886-15.079 0-5.62-3.263-10.523-8.077-13.117 14.189 2.43 19.96 11.493 21.431 14.307-1.95 3.426-10.605 16.538-28.825 16.538zM50.127 17.227c1.702 0 3.035-1.612 3.035-3.669V3.67c0-2.058-1.333-3.67-3.035-3.67-.899 0-1.743.464-2.313 1.272-.467.661-.723 1.513-.723 2.397v9.888c0 2.058 1.334 3.67 3.036 3.67zM99.606 26.121c-.514-.832-1.432-1.308-2.52-1.308-.749 0-1.508.224-2.195.648l-8.421 5.184c-.754.464-1.345 1.129-1.662 1.872-.39.91-.342 1.872.128 2.635.512.834 1.431 1.312 2.521 1.312.748 0 1.507-.225 2.195-.648l8.42-5.184c1.754-1.079 2.427-3.06 1.534-4.511zM13.529 30.646L5.11 25.463a4.188 4.188 0 0 0-2.197-.65c-1.088 0-2.006.476-2.52 1.309-.893 1.449-.219 3.43 1.532 4.51l8.421 5.184a4.2 4.2 0 0 0 2.195.647c1.089 0 2.008-.477 2.52-1.309.471-.766.518-1.728.129-2.637-.316-.742-.907-1.407-1.661-1.871zM24.896 20.598c.735 1.169 1.922 1.896 3.098 1.896.511 0 1.004-.14 1.424-.404 1.441-.905 1.713-2.978.619-4.722l-5.259-8.374C24.043 7.826 22.856 7.1 21.681 7.1c-.511 0-1.003.139-1.426.404-1.44.906-1.711 2.98-.617 4.721l5.258 8.373zM71.595 22.092c.421.263.913.403 1.424.403 1.178 0 2.365-.727 3.1-1.896l5.26-8.374c1.092-1.741.819-3.813-.622-4.722a2.678 2.678 0 0 0-1.424-.403c-1.176 0-2.363.727-3.098 1.896l-5.258 8.373c-1.094 1.741-.823 3.815.618 4.723z"></path></g><!----></svg>