<svg data-v-423bf9ae="" xmlns="http://www.w3.org/2000/svg" viewBox="0 0 180.0587041581972 60" class="font"><!----><!----><!----><g data-v-423bf9ae="" id="3b82b2ca-57f5-4a1e-9b04-3801c38e89c4" fill="#FFFFFF" transform="matrix(5.870841333886128,0,0,5.870841333886128,-4.872801191876562,-18.845400428892134)"><path d="M7.35 13.23L7.71 10.47L7.69 10.46C7.08 11.30 6.10 11.72 4.89 11.72L3.50 11.72L3.50 5.49C3.50 4.34 3.91 3.65 4.26 3.42L4.26 3.39L0.83 3.39L0.83 3.42C1.19 3.65 1.58 4.33 1.58 5.43L1.58 11.02C1.58 12.17 1.18 12.85 0.83 13.09L0.83 13.12L5.80 13.12C6.44 13.12 6.82 13.13 7.35 13.23ZM11.49 13.33C13.76 13.30 14.91 12.03 14.91 10.47C14.91 8.37 13.43 7.76 12.18 7.24C11.27 6.86 10.49 6.54 10.49 5.73C10.49 5.01 11.03 4.65 12.10 4.65C12.91 4.65 13.71 4.87 14.31 5.80L14.34 5.80L14.15 3.50C13.34 3.29 12.68 3.21 11.96 3.21C9.79 3.21 8.60 4.48 8.60 5.87C8.60 7.81 9.95 8.39 11.17 8.89C12.12 9.28 12.98 9.65 12.98 10.61C12.98 11.37 12.49 11.84 11.35 11.87C10.21 11.90 9.30 11.49 8.46 10.40L8.43 10.42L8.67 12.77C9.30 13.15 10.36 13.34 11.49 13.33ZM23.09 10.91L21.03 7.94L22.75 5.11C23.35 4.13 23.93 3.58 24.36 3.42L24.36 3.39L21.28 3.39L21.28 3.42C21.50 3.84 21.32 4.21 20.97 4.82L19.98 6.52L18.91 4.75C18.59 4.20 18.45 3.84 18.54 3.42L18.54 3.39L15.27 3.39L15.27 3.42C15.83 3.74 16.16 4.07 16.53 4.63L18.75 7.94L16.58 11.28C16.00 12.17 15.33 12.87 14.84 13.09L14.84 13.12L18.14 13.12L18.14 13.09C17.92 12.94 17.82 12.52 18.23 11.86L19.77 9.35L21.20 11.56C21.77 12.45 22.08 13.03 22.08 13.43L25.00 12.91L25.00 12.88C24.51 12.56 23.76 11.89 23.09 10.91ZM28.08 13.33C30.35 13.30 31.50 12.03 31.50 10.47C31.50 8.37 30.02 7.76 28.77 7.24C27.86 6.86 27.08 6.54 27.08 5.73C27.08 5.01 27.62 4.65 28.69 4.65C29.50 4.65 30.30 4.87 30.90 5.80L30.93 5.80L30.74 3.50C29.93 3.29 29.27 3.21 28.55 3.21C26.38 3.21 25.19 4.48 25.19 5.87C25.19 7.81 26.54 8.39 27.76 8.89C28.71 9.28 29.57 9.65 29.57 10.61C29.57 11.37 29.08 11.84 27.94 11.87C26.80 11.90 25.89 11.49 25.05 10.40L25.02 10.42L25.26 12.77C25.89 13.15 26.95 13.34 28.08 13.33Z"></path></g><!----><!----></svg>